<?xml version="1.0" encoding="UTF-8" standalone="no"?>
<svg
   xmlns:dc="http://purl.org/dc/elements/1.1/"
   xmlns:cc="http://creativecommons.org/ns#"
   xmlns:rdf="http://www.w3.org/1999/02/22-rdf-syntax-ns#"
   xmlns:svg="http://www.w3.org/2000/svg"
   xmlns="http://www.w3.org/2000/svg"
   xmlns:sodipodi="http://sodipodi.sourceforge.net/DTD/sodipodi-0.dtd"
   xmlns:inkscape="http://www.inkscape.org/namespaces/inkscape"
   inkscape:export-ydpi="96"
   inkscape:export-xdpi="96"
   inkscape:export-filename="/Users/saigautamgopalakrishnan/Documents/Acad/Prof/Website/full-site-sai-mat-group.github.io/images/logo.png"
   sodipodi:docname="logo.svg"
   inkscape:version="1.0 (4035a4f, 2020-05-01)"
   id="svg8"
   version="1.1"
   viewBox="0 0 115.88991 110"
   height="110mm"
   width="115.88991mm">
  <defs
     id="defs2" />
  <sodipodi:namedview
     inkscape:window-maximized="0"
     inkscape:window-y="23"
     inkscape:window-x="0"
     inkscape:window-height="943"
     inkscape:window-width="1252"
     fit-margin-bottom="0"
     fit-margin-right="0"
     fit-margin-left="0"
     fit-margin-top="0"
     showgrid="false"
     inkscape:document-rotation="0"
     inkscape:current-layer="layer1"
     inkscape:document-units="mm"
     inkscape:cy="257.13427"
     inkscape:cx="178.51309"
     inkscape:zoom="1"
     inkscape:pageshadow="2"
     inkscape:pageopacity="0.0"
     borderopacity="1.0"
     bordercolor="#666666"
     pagecolor="#ffffff"
     id="base" />
  <metadata
     id="metadata5">
    <rdf:RDF>
      <cc:Work
         rdf:about="">
        <dc:format>image/svg+xml</dc:format>
        <dc:type
           rdf:resource="http://purl.org/dc/dcmitype/StillImage" />
        <dc:title></dc:title>
      </cc:Work>
    </rdf:RDF>
  </metadata>
  <g
     transform="translate(-55.466081,-94.075349)"
     id="layer1"
     inkscape:groupmode="layer"
     inkscape:label="Layer 1">
    <circle
       r="53.261234"
       cy="149.07535"
       cx="116.35599"
       id="path1716"
       style="opacity:1;fill:#fdfefc;fill-opacity:1;stroke:#4d4d4f;stroke-width:3.47753;stroke-miterlimit:4;stroke-dasharray:none;stroke-opacity:1" />
    <g
       transform="translate(4.2547325,6.7609707)"
       id="g1712">
      <path
         style="fill:#007e97;fill-opacity:1;fill-rule:evenodd;stroke:none;stroke-width:0.826174"
         id="path1873"
         d="m 116.89013,159.27138 v -9.94471 c 0,0 14.53456,-1.52995 19.12442,-6.11978 4.58985,-4.58988 5.90125,-12.02108 5.90125,-16.61094 0,-2.29492 0.0241,-8.4632 0.0241,-11.68777 0,-1.96948 0.34802,-5.47621 3.02099,-5.47621 1.32909,0 3.40262,0.007 3.40262,0.007 v -2.29491 c 0,0 -2.84134,-0.10926 -4.58985,-0.10926 -1.74853,0 -5.9559,0.27322 -8.08691,2.40421 -2.131,2.13101 -3.49703,7.97762 -3.49703,18.03159 0,10.05397 -0.87426,12.78604 -3.38776,15.29953 -3.77063,3.77064 -11.91178,4.04346 -11.91178,4.04346 v -28.85055 c 0,-3.49704 -0.10925,-5.35483 1.52997,-6.99408 1.63923,-1.63925 7.10335,-1.42066 7.10335,-1.42066 v -2.5135 H 98.67901 v 2.5135 c 0,0 5.46412,-0.21859 7.10336,1.42066 1.63923,1.63925 1.52995,3.49704 1.52995,6.99408 v 28.85055 c 0,0 -8.14114,-0.27291 -11.91178,-4.04346 -2.51349,-2.51346 -3.387751,-5.24554 -3.387751,-15.29953 0,-10.05395 -1.366029,-15.90058 -3.497036,-18.03156 -2.131005,-2.13102 -6.338376,-2.40421 -8.086895,-2.40421 -1.748519,0 -4.589858,0.10926 -4.589858,0.10926 v 2.29495 c 0,0 2.07353,-0.007 3.402617,-0.007 2.672969,0 3.02099,3.50669 3.02099,5.4762 0,3.22453 0.02404,9.39282 0.02404,11.68773 0,4.58988 1.31139,12.02108 5.901248,16.61094 4.589865,4.58987 19.124415,6.11983 19.124415,6.11983 v 9.94469"
         sodipodi:nodetypes="cccsssccsssscssccccsscsscsccsssscc" />
      <path
         d="m 126.39836,182.9495 v -2.15927 c 0,0 -5.46412,0.13493 -6.99407,-1.34954 -1.52996,-1.4845 -2.5135,-4.04863 -2.5135,-7.96233 v -12.28084 c 5e-5,-38.73127 5e-5,12.49512 5e-5,-38.73127 0,-4.31853 -0.10925,-6.61274 1.52997,-8.63706 1.63923,-2.02433 7.10335,-1.7544 7.10335,-1.7544 v -3.10394 H 98.679679 v 3.10394 c 0,0 5.464111,-0.26993 7.103351,1.7544 1.63923,2.02432 1.52995,4.31853 1.52995,8.63706 -10e-6,51.01217 -10e-6,9.36493 -10e-6,51.01217 0,3.91367 -0.98354,6.47782 -2.51348,7.96233 -1.52996,1.48448 -6.994079,1.34952 -6.994079,1.34952 v 2.1593"
         id="path1422"
         style="fill:#33bb95;fill-opacity:1;fill-rule:evenodd;stroke:none;stroke-width:0.918101"
         sodipodi:nodetypes="ccssccsccccsccscc" />
      <text
         xml:space="preserve"
         style="font-style:normal;font-weight:normal;font-size:31.5762px;line-height:1.25;font-family:sans-serif;fill:#f57921;fill-opacity:1;stroke:none;stroke-width:0.789406"
         x="63.421837"
         y="232.73497"
         id="text1426"
         transform="scale(1.2721264,0.78608544)"><tspan
           sodipodi:role="line"
           id="tspan1424"
           x="63.421837"
           y="232.73497"
           style="font-style:normal;font-variant:normal;font-weight:normal;font-stretch:normal;font-size:63.1526px;font-family:'Gill Sans';-inkscape-font-specification:'Gill Sans';fill:#f57921;fill-opacity:1;stroke-width:0.789406">M</tspan></text>
    </g>
    <ellipse
       ry="39.158333"
       rx="50.138542"
       cy="139.25002"
       cx="108.25046"
       id="path1714"
       style="opacity:0;fill:#f57921;fill-opacity:1;stroke:#f57921;stroke-width:5.29167;stroke-miterlimit:4;stroke-dasharray:none;stroke-opacity:1" />
  </g>
</svg>
